<svg width="42" height="42" viewBox="0 0 42 42" fill="none" xmlns="http://www.w3.org/2000/svg">
<path fill-rule="evenodd" clip-rule="evenodd" d="M20.7158 3.45312C30.2497 3.45312 37.9785 11.1819 37.9785 20.7158C37.9785 30.2497 30.2497 37.9785 20.7158 37.9785C11.1819 37.9785 3.45312 30.2497 3.45312 20.7158C3.45312 11.1819 11.1819 3.45312 20.7158 3.45312ZM20.7158 5.17937C12.1353 5.17937 5.17937 12.1353 5.17937 20.7158C5.17937 29.2963 12.1353 36.2522 20.7158 36.2522C29.2963 36.2522 36.2522 29.2963 36.2522 20.7158C36.2522 12.1353 29.2963 5.17937 20.7158 5.17937ZM27.2717 11.7195L29.713 14.1609L23.1581 20.7158L29.713 27.2707L27.2717 29.712L20.7167 23.157L14.1741 29.6999L11.7327 27.2585L18.2754 20.7158L11.7327 14.1731L14.1741 11.7318L20.7167 18.2745L27.2717 11.7195Z" fill="#605D66"/>
</svg>
