<svg width="24" height="24" viewBox="0 0 24 24" fill="none" xmlns="http://www.w3.org/2000/svg">
<path d="M12 1.50684C12.59 1.50684 13.1746 1.62382 13.7197 1.84961C14.2646 2.07539 14.7597 2.40617 15.1768 2.82324C15.5938 3.24031 15.9246 3.73538 16.1504 4.28027C16.3762 4.82537 16.4932 5.40999 16.4932 6V8.50684H18C18.3959 8.50684 18.7757 8.66438 19.0557 8.94434C19.3356 9.22429 19.4932 9.60408 19.4932 10V20C19.4932 20.3959 19.3356 20.7757 19.0557 21.0557C18.7757 21.3356 18.3959 21.4932 18 21.4932H6C5.60408 21.4932 5.22429 21.3356 4.94434 21.0557C4.66438 20.7757 4.50684 20.3959 4.50684 20V10C4.50684 9.17011 5.17011 8.50684 6 8.50684H7.50684V6C7.50684 4.80843 7.98068 3.66581 8.82324 2.82324C9.66581 1.98068 10.8084 1.50684 12 1.50684ZM5.49316 20.5068H18.5068V9.49316H5.49316V20.5068ZM12 13.5068C12.3959 13.5068 12.7757 13.6644 13.0557 13.9443C13.3356 14.2243 13.4932 14.6041 13.4932 15C13.4932 15.3959 13.3356 15.7757 13.0557 16.0557C12.7757 16.3356 12.3959 16.4932 12 16.4932C11.6041 16.4932 11.2243 16.3356 10.9443 16.0557C10.6644 15.7757 10.5068 15.3959 10.5068 15C10.5068 14.1701 11.1701 13.5068 12 13.5068ZM12 2.49316C11.0698 2.49316 10.1782 2.86278 9.52051 3.52051C8.86278 4.17823 8.49316 5.06984 8.49316 6V8.50684H15.5068V6C15.5068 5.06984 15.1372 4.17823 14.4795 3.52051C13.8218 2.86278 12.9302 2.49316 12 2.49316Z" fill="#222222" stroke="#111215" stroke-width="1.01437"/>
</svg>
