<svg width="24" height="24" viewBox="0 0 24 24" fill="none" xmlns="http://www.w3.org/2000/svg">
<path d="M1.875 3.00391H22.125C22.3822 3.00391 22.6236 3.05107 22.8496 3.14453C23.0757 3.23807 23.2748 3.37441 23.4463 3.55371C23.6178 3.73306 23.7502 3.93212 23.8438 4.15039C23.9372 4.36855 23.9883 4.60995 23.9961 4.875V17.625C23.9961 17.8822 23.9489 18.1236 23.8555 18.3496C23.7619 18.5757 23.6256 18.7748 23.4463 18.9463C23.2669 19.1178 23.0679 19.2502 22.8496 19.3438C22.6315 19.4372 22.3901 19.4883 22.125 19.4961H1.875C1.61778 19.4961 1.37637 19.4489 1.15039 19.3555C0.924337 19.2619 0.725216 19.1256 0.553711 18.9463C0.382175 18.7669 0.249796 18.5679 0.15625 18.3496C0.0627924 18.1315 0.0117144 17.8901 0.00390625 17.625V4.875C0.00390625 4.61778 0.0510665 4.37637 0.144531 4.15039C0.238071 3.92434 0.37441 3.72522 0.553711 3.55371C0.733058 3.38218 0.932117 3.2498 1.15039 3.15625C1.31403 3.08615 1.49065 3.0395 1.68066 3.01758L1.875 3.00391ZM1.5 9H1.49609V17.625C1.49609 17.7353 1.53142 17.8263 1.60254 17.8975C1.67366 17.9686 1.7647 18.0039 1.875 18.0039H22.125C22.2353 18.0039 22.3263 17.9686 22.3975 17.8975C22.4686 17.8263 22.5039 17.7353 22.5039 17.625V9H22.5V8.99609H1.5V9ZM19.4961 13.5039V14.9961H16.5039V13.5039H19.4961ZM1.875 4.49609C1.7647 4.49609 1.67366 4.53142 1.60254 4.60254C1.53142 4.67366 1.49609 4.7647 1.49609 4.875V7.5H1.5V7.50391H22.5V7.5H22.5039V4.875C22.5039 4.7647 22.4686 4.67366 22.3975 4.60254C22.3263 4.53142 22.2353 4.49609 22.125 4.49609H1.875Z" fill="#111215" stroke="#111215" stroke-width="0.0078125"/>
</svg>
